# xmcd CD database file
#
# Track frame offsets:
#	150
#	24888
#	48595
#	81574
#	145607
#	165915
#	194564
#	216361
#
# Disc length: 3352 seconds
#
# Revision: 0
# Processed by: cddbd v1.5.2PL0 Copyright (c) Steve Scherf et al.
# Submitted via: CDex 1.70beta3
#
DISCID=6a0d1608
DTITLE=早川岳晴 - Kowloon
DYEAR=2002
DGENRE=Jazz
TTITLE0=down, down
TTITLE1=amatsukitsune
TTITLE2=kinabalu
TTITLE3=tango
TTITLE4=kaitousei
TTITLE5=sambal chili
TTITLE6=off the door
TTITLE7=ethology
EXTD=YEAR: 2002
EXTT0=
EXTT1=
EXTT2=
EXTT3=
EXTT4=
EXTT5=
EXTT6=
EXTT7=
PLAYORDER=
